<svg width="24" height="24" viewBox="0 0 24 24" fill="none" xmlns="http://www.w3.org/2000/svg">
<g clip-path="url(#clip0_1_10)">
<path d="M12.326 0C5.74699 0.001 2.24999 4.216 2.24999 8.812C2.24999 10.943 3.44099 13.602 5.34799 14.445C5.89199 14.69 5.81999 14.391 6.28799 12.601C6.32499 12.452 6.30599 12.323 6.18599 12.184C3.45999 9.031 5.65399 2.549 11.937 2.549C21.03 2.549 19.331 15.131 13.519 15.131C12.021 15.131 10.905 13.955 11.258 12.5C11.686 10.767 12.524 8.904 12.524 7.655C12.524 4.507 7.83399 4.974 7.83399 9.145C7.83399 10.434 8.28999 11.304 8.28999 11.304C8.28999 11.304 6.78099 17.4 6.50099 18.539C6.02699 20.467 6.56499 23.588 6.61199 23.857C6.64099 24.005 6.80699 24.052 6.89999 23.93C7.04899 23.735 8.87299 21.133 9.38399 19.252C9.56999 18.567 10.333 15.787 10.333 15.787C10.836 16.695 12.286 17.455 13.831 17.455C18.427 17.455 21.749 13.415 21.749 8.402C21.733 3.596 17.62 0 12.326 0V0Z" fill="white"/>
</g>
<defs>
<clipPath id="clip0_1_10">
<rect width="24" height="24" fill="white"/>
</clipPath>
</defs>
</svg>
